<svg version="1.2" xmlns="http://www.w3.org/2000/svg" viewBox="0 0 89 124" width="89" height="124">
	<style>
		.s0 { fill: #343434 } 
	</style>
	<path id="3" class="s0" aria-label="3"  d="m77.1 84.1q0 15.2-10.2 24.5-10 9.3-25 9.3-15.3-0.1-24.6-9.8-7.5-7.8-7.5-16.2 0-6.7 6-7.6 6.3-1 8.8 6.7 4.4 13.1 17.3 13.1 8.4 0 14.2-5.4 6-5.6 6-13.4 0-10.2-6.3-15.1-5.1-3.9-12.9-3.5-4.5 0.1-7-1.8-2.4-2.1-2.4-5.1 0-5.2 7.8-7 15.7-3.8 15.7-16.2 0-7.1-4.2-11.6-4.2-4.5-10.8-4.5-13.2 0-14.2 14.4-0.6 7.5-8.1 7.5-2.9 0-4.8-2.1-2-2.2-2-4.9 0-11.7 8.3-20.3 8.2-8.5 21.4-8.5 12.8 0 21.2 8.7 7.9 8.4 7.9 20.2 0 6.8-3.1 13.4-3.2 6.4-7.5 8.7 6 1.3 10.9 9.1 5.1 8.3 5.1 17.4z"/>
</svg>