<svg version="1.2" xmlns="http://www.w3.org/2000/svg" viewBox="0 0 237 87" width="237" height="87">
	<style>
		.s0 { fill: #000000 } 
		.s1 { fill: #494949 } 
	</style>
	<path id="SASS" class="s0" aria-label="SASS"  d="m31.9 46.6v-10.1q0-3.1-4.6-3.1h-6.6q-8.7 0-12-4.7-1.1-1.6-1.1-3.6v-7.5q0-3.7 3.8-6 3.9-2.3 9.3-2.3h8.7q5.5 0 9.3 2.2 3.9 2.2 3.9 6.1v4.6h-10.7v-3.6q0-3.1-4.6-3.1h-4.5q-4.5 0-4.5 3.1v5.4q0 3.3 4.5 3.1h6.6q5.5 0 9.3 2.3 3.9 2.2 3.9 6.1v12.1q0 3.9-4 6.2-3.7 2.2-9.2 2.2h-8.7q-8.6 0-12-4.8-1.1-1.6-1.1-3.6v-6.2h10.7v5.2q0 3.2 4.5 3.2h4.5q4.6 0 4.6-3.2zm40.7-28.6l-8.1 20.7h16.2zm-7.8-8.7h15.5l17 46.7h-10.7l-3.9-11h-20.4l-3.8 11h-10.7zm62.1 37.4v-10.2q0-3.1-4.6-3.1h-6.6q-8.7 0-12-4.7-1.2-1.5-1.2-3.5v-7.5q0-3.8 3.8-6 3.9-2.4 9.4-2.4h8.7q5.5 0 9.3 2.3 3.9 2.2 3.9 6.1v4.6h-10.7v-3.6q0-3.1-4.6-3.1h-4.5q-4.5 0-4.5 3.1v5.4q0 3.3 4.5 3.1h6.6q5.5 0 9.3 2.2 3.9 2.2 3.9 6.1v12.2q0 3.9-4.1 6.1-3.6 2.3-9.1 2.3h-8.7q-8.6 0-12-4.8-1.2-1.6-1.2-3.6v-6.3h10.8v5.3q0 3.1 4.5 3.1h4.5q4.6 0 4.6-3.1zm43 0v-10.2q0-3.1-4.6-3.1h-6.6q-8.7 0-12-4.7-1.2-1.5-1.2-3.5v-7.5q0-3.8 3.8-6 3.9-2.4 9.4-2.4h8.7q5.5 0 9.3 2.3 3.9 2.2 3.9 6.1v4.6h-10.7v-3.6q0-3.1-4.6-3.1h-4.5q-4.5 0-4.5 3.1v5.4q0 3.3 4.5 3.1h6.6q5.5 0 9.3 2.2 3.9 2.2 3.9 6.1v12.2q0 3.9-4.1 6.1-3.6 2.3-9.1 2.3h-8.7q-8.6 0-12-4.8-1.2-1.6-1.2-3.6v-6.3h10.8v5.3q0 3.1 4.5 3.1h4.5q4.6 0 4.6-3.1z"/>
	<path id="3" class="s1" aria-label="3"  d="m226.6 71.5l0.1 0.3zm-8.3 2.5zm9.5-6.4l0.2 2.4-0.4 0.6q-0.3 0.4-0.6 0.5-0.4-0.2-0.5-0.2l-0.2 0.8-0.1 0.6-0.7 0.2-1.6-0.1q-0.2 0.3-0.7 0.5l-0.6 0.1-1.1 0.4-1.1-0.2-0.7 0.4q-1.3-0.6-1.8-0.5-0.2 0.7-0.5 0.9h-0.9l-1.4-0.1q-0.4 0.5-0.7 0.6l-2 0.4q-1.3 0.1-2.2-0.2-0.8 0.2-1.5 0.4-0.7 0.3-1.2 0.3l-2.2-0.8-1.5 0.4q-0.5-0.4-0.8-0.4l-2.6 0.3q-1.1 0.2-2.3 0.1-1.2-0.6-1.7-0.6h-1l-1-0.3h-1.7l-1.7-0.2-0.6 0.1-1.6-0.9-0.9 0.4h-1.6l-1.6 0.5q-0.7 0.3-1.7-0.1l0.4-0.8q0.3-0.4-0.1-0.7l-0.4 0.1-0.1 0.7q-0.4 0.6-1.6 0.4l-0.2-0.3q0.2-0.3 0.1-0.5l-1.1-0.4q-0.4 0.4-0.6 0.4-0.1 0-0.1-0.1-1.1-0.7-1.9-0.7l-1.4 0.1-0.5-0.3-0.9 0.4-0.9-0.4-1.1-0.4h-1.1l-1.4 0.3-1.4-0.5-1.6-0.3-1.8-0.1-1.3-1-0.8 0.1-0.7-0.7-0.8-0.1-1.6-0.8-1.3-0.4-0.6 0.1q-0.3-0.5-0.4-0.8v-0.3l-1.2-0.3 0.1-0.5v-0.5l-0.7-1h-0.6l-0.6-0.5-0.5 0.2-1.5-1.7-0.6-0.2q-0.2 0-0.7-0.3l0.8-0.6 0.4-0.9 0.1-1q-0.1-0.2-0.4-0.3l-0.3 0.4 0.3-0.6-0.2-0.4 1-0.4 1.2-0.2 0.9-0.4q0.4-0.2 1.7 0.2 0.9 0.3 1.4 0.3l1.3-0.4 0.5 0.4h1.7l0.6 0.4 0.1-0.4q0.7-0.1 1.1-0.1 0.6 0 0.8 0.1 0.3 0 0.4 0.1l0.2 0.4-0.4 0.4h-0.9l-0.7 1-1.1 0.4-0.6 1.2h-0.9l-1 0.8-1.4-0.4q-0.1 0.5-0.2 0.9v0.8l0.5-0.4 0.5-0.4v0.7q0.6 0.5 1.1 0.7l3.6 0.9 1.4 0.5 1.4 0.5 0.7 0.7q0.4 0.3 2.1 0.4l2.5 0.4 3.2 1.1h1.3l1.6 0.6 1.2 0.3 2.5 0.2 2.4 0.4 1.1 0.5 2.4 0.2 2.5 0.2 1.4 0.3q0.5-0.2 0.8-0.1l1.1 0.3 1.4 0.1h1.4l1.5 0.4 3.3-0.2 2.2-0.1 1.1 0.1 2.2-0.2q3 0 5.3-0.6 2.3-0.6 3.9-2.6l0.8-1.4-0.3-0.8q0.3-0.6 0.2-1l-1.1-1.5-0.7-0.5 0.1-0.5h-0.7l-1.1-0.9-0.8-1.1-0.3-0.6-0.6-0.8-1.6-0.3q-0.6-0.4-0.9-1l-0.5-0.8q-0.3-0.3-1.8-0.2-0.4 0.1-0.8-0.3-1.1-0.8-1.3-0.8l-0.8 0.5-1.5-1v-0.7l-0.6-0.7-0.9-0.6-1.1-0.2q-0.8-0.1-1.1-0.6l-1.4-3.1 0.1-0.6-0.1-0.4q-0.5 0.1-0.9 0.2-0.5 0.3-0.4 0.8 0.8 0.1 1.1 0.7l-0.4 0.5q-0.4 0.3-0.7 0.2-0.4 0-0.6-0.6l-0.2-1-0.4-0.3h-0.4l0.1-0.5-0.1-0.3-0.4-0.2-0.2 0.2q-0.1-0.5-0.1-0.7 0.1-0.3-0.1-0.4 0-0.1 0-0.2l-1.7-0.4q-2-0.2-2.9-0.6l-0.5-0.6-1.5-0.7-0.7-1-1.9-0.3q-0.3-0.6-0.7-1-0.5-0.1-1-0.4-0.3-0.1-1-0.2l-1.2-1.4q-0.5 0-0.9 0.2l-0.6 0.4-1.7-0.7q-0.2-0.2-0.6-0.5-0.3-0.2-0.4-0.3l-1.5-0.1-0.9 0.5-0.3-0.1 0.1-0.3q-0.1-0.3-0.9-0.6-0.8-0.3-1.4-0.2l-0.4 0.5q-0.4 0-0.4-0.4l0.1-0.5-0.7-0.7-0.6 0.1-0.2-0.3-0.1-0.7 0.4-0.4 0.8 0.4 0.8-0.4 1-0.4 0.2 0.2 0.1 0.4 0.6-0.1 0.7 0.7q0.4-0.1 0.6-0.3l-0.2-0.6 0.8-1-0.6-0.6q-0.7-0.5-1.1-0.5l-0.7 0.6-0.4-0.5-0.4-0.2-0.4-0.7q-0.5 0.1-0.8 0.2l-0.8 0.2q-0.5-0.2-0.5-0.5v-0.4l-0.7-0.1-1.1-0.1q-0.4-0.2-0.4-0.9 0.2-0.6 0-1-0.3-0.3-0.4-0.6l0.5-0.5v-0.5l0.8-0.6 1.2-0.3q0.8-0.4 1.7-0.6 1.1-0.2 2.5-0.2l4.2-0.4h1.2q2.2-0.1 2.2-0.8l-0.7-0.2-0.7-0.7q-0.4-0.3-0.9-0.2l-1 0.2q-0.2 0-0.6-0.3l0.2-0.4 0.3-0.7q0.2-0.5 0.1-0.6l-0.3-0.3 0.2-0.5q-0.1-0.3-1.1-0.7l-1-0.4q0-0.3 0.5-1.1 0.7-1 0.7-1.2-0.1-0.3-0.5-0.3l-0.7 0.1q0-0.2 0.5-0.7l0.6-0.6-0.4-2.6 0.8-0.6 1.3-0.5 3.5-1.3 1.7-0.1 0.8 0.3 1.6-0.2h1.8q0.5 0.4 0.9 0.5l1.6-0.2 0.5-0.5 1.6-0.1 1.6 0.1q0.7 0.1 1.9 0.5 1.1 0.4 1.5 0.3l1.2-0.1 0.6 0.6h1q0.4 0 0.8 0.1 0.5 0 0.9 0.1l1.5 1.2h0.7l0.1 0.6 0.5 0.3h0.3l0.3-0.4 0.4 0.1q0.5 0 0.6-0.1l0.1-0.7 0.8 0.5 0.5 0.2 0.5-0.1q0.3 0.3 0.2 1.1l-0.2 0.7h0.3l-1.2-0.1-0.5 0.1q0.5 0.5 0.8 0.7 0.6 0.2 0.5 0.7-0.3 0.4-1 0.2-0.7-0.2-1 0.2 0.1 0.4 0.3 0.5l0.5 0.1-0.1 0.8 0.6 0.2-0.3 0.7 0.7 1.8-0.1 1q0.2 0.3 0.4 0.2l0.5-0.3-0.1-0.8 0.8-0.9q-0.1-0.3 0-0.4 0.1-0.3 0.1-0.4 0.3-0.1 0.8 0.4l0.6 1.2 0.6-0.4q0.3-0.2 0.8 0 0.1 0.5 0.1 0.8v1.6q0.4 0 0.8-0.2 0.5-0.2 0.8 0 0.1 0.2-0.1 0.5 0 0.3-0.2 0.9l-0.5 1.1 0.3 0.5q-0.1 0.5-0.2 0.6l-1.5 1.2 0.4 1.1-0.7 1.1 0.7 0.2 0.2 0.5-0.3 0.1-1.4 1.1-0.2-0.4-0.6-1q-0.4 0.1-0.1 1 0.4 0.8 0.1 1l-2-0.1-0.1 0.6-0.7 0.1h-0.4l0.3-0.8-0.5-0.4-0.5 0.9-0.2 0.8-0.4 0.3q-0.4-0.4-0.6-0.3l-0.8 0.7-1.2-0.2-0.5 0.7-0.3-0.2 0.1-0.3 0.3-1 0.6-0.2q0.1-0.3 0-0.4h-0.5l-0.5 0.1-1.4-0.1q-0.9 0-1.3 0.4-0.3 0.3-0.1 0.9l0.4 0.3 0.3 0.2-0.5 0.7 0.3 1.1q0.4 0.6 1.2 1.2 0.7 0.5 1.1 0.6l0.9 0.4q0.5-0.3 0.8-0.1 0.3 0.5 0.2 0.9 0.1 0.3 0.6 0.7 0.3 0.2 0.5 0.2 0.3 0.1 1.3 0.2 1.1 0.1 2.6 1.2l2.1 1.9 1.1 0.8 1.2 0.9 1 0.9 1.2 1.2 1.5 0.7q0.5 0.4 0.9 1.2l0.9 1 0.7 0.6q0.4 0.3 1.3 0.8l0.9 1.4q0.7 0.8 0.7 1.1 1.1 0.7 1.7 1 0.6 0.5 1.1 2.1l1.3 3 1.2 0.3v1l0.2 1.2q0.4 1 0.5 1.7 0.2 0.5 0.3 1zm-36.1-18.6l-0.8-0.4-0.1-0.3 0.9-0.1 0.7-1 0.2 0.1q-0.2 0.2-0.4 0.4-0.2 0.3-0.2 0.4v0.6q-0.2 0.2-0.3 0.3zm-24.1-12.4l0.6 0.3-0.3 0.2-0.5 0.2-0.4 0.5-0.5-0.6v-0.3q0-0.4-0.1-0.5l-0.7-1 0.4-0.7q0.4-0.3 0.8-0.2l0.5 0.7 0.6 0.2 0.7 0.3q-0.2 0.5-0.5 0.6zm46-5.7q0.1 0.5 0 0.6-0.4 0.2-0.6 0.1-0.1-0.4-0.1-0.6 0.3-0.4 0.7-0.1zm13.5 41.2h-0.3q0-0.5 0.1-0.6zm0.7-1.2l0.9-0.6zm-51.1-52.9l-0.2 0.7zm-24.8 42.7l0.4-0.5zm26.5 10.8l0.4-0.4zm-15.1-10.2l0.2 0.2q0.1 0.3-0.2 0.3l-0.2-0.3zm16.4-19.6l0.2 0.2-0.3 0.2-0.3-0.1 0.2-0.3q0.1 0 0.2 0zm-5.4-2.7l0.3-0.3zm-3.7-0.2l0.3-0.1-0.2 0.3-0.3-0.2zm42.3-6.7l-0.3 0.4zm-42.9 4l0.3-0.3zm-7.5 34l0.2-0.2zm2.7-9.8l0.3-0.2zm44-38.9h0.3zm-38.7 11.6l0.2-0.2zm38.7-1.6l0.2-0.1zm-37.1 7zm0 0zm10.1 6.7l0.2 0.1zm-24.5 19.6zm54.5-34l0.2-0.2zm-42.4 3.1zm0 0zm0 0zm23.8 13.6l0.2-0.1zm-25.4-16.6l0.2-0.1zm31.8 6.5q0.1 0.4-0.5 0.4l-0.6-0.2q0.3-0.4 0.5-0.5 0.3 0 0.6 0.3zm-29.3-2zm39.8-7.6l0.6-0.3-0.4 0.5-0.7 0.4zm-37.8 7.6v0.2zm36.4-3.2l0.1 0.2zm1.2-9.2zm0.8 0.9zm-58.4 35.5v0.2zm57.5-30.2zm-57.8 33v0.3zm51.4-20zm0.5-6.4v0.2zm-29.6-16.4zm6.3 51.9zm20.2-36.2zm4.4-1.4v0.2zm-17.9-6.3l4.1-1.9-3.3 0.6-3.2 0.8zm-6.6 44.3z"/>
</svg>